<svg xmlns="http://www.w3.org/2000/svg" xmlns:xlink="http://www.w3.org/1999/xlink" width="1360" height="1760"><g transform="translate(0 0)"><g filter="url(#a)"><path d="M460 1280h396v289c-66-48.17-107.25-48.17-132-48.17-39.6 0-92.4 48.17-132 48.17-24.75 0-66 0-132-48.17z" stroke="#3d4752" stroke-width="4" fill="#39b6fa"/><path d="M482 1305.5h396v289c-66-48.17-107.25-48.17-132-48.17-39.6 0-92.4 48.17-132 48.17-24.75 0-66 0-132-48.17z" stroke="#3d4752" stroke-width="4" fill="#39b6fa"/><path d="M504 1331h396v289c-66-48.17-107.25-48.17-132-48.17-39.6 0-92.4 48.17-132 48.17-24.75 0-66 0-132-48.17z" stroke="#3d4752" stroke-width="4" fill="#39b6fa"/><use xlink:href="#b" transform="matrix(1,0,0,1,509,1336) translate(143.74074074074073 120.83333333333334)"/></g><path d="M870 80c16.57 0 30 13.43 30 30v280c0 16.57-13.43 30-30 30H490c-16.57 0-30-13.43-30-30V110c0-16.57 13.43-30 30-30z" stroke="#3d4752" stroke-width="4" fill="#9fe467" filter="url(#a)"/><path d="M560 220h240v60H560z" fill="none"/><use xlink:href="#c" transform="matrix(1,0,0,1,565,225) translate(72.07407407407408 30.333333333333336)"/><path d="M550 550l40-40v20h180v-20l40 40-40 40v-20H590v20z" stroke="#3d4752" stroke-width="4" fill="#ccc" transform="matrix(6.123233995736766e-17,1,-1,6.123233995736766e-17,1230,-130.00000000000003)" filter="url(#d)"/><path d="M527.33 1127.33l40-40v20h225.34v-20l40 40-40 40v-20H567.33v20z" stroke="#3d4752" stroke-width="4" fill="#ccc" transform="matrix(6.123233995736766e-17,1,-1,6.123233995736766e-17,1807.3333333333333,447.3333333333332)" filter="url(#e)"/><g filter="url(#f)"><path d="M640 480h240v60H640z" fill="none"/><use xlink:href="#g" transform="matrix(1,0,0,1,645,485) translate(79.48148148148147 30.333333333333336)"/></g><g filter="url(#f)"><path d="M640 1110h240v60H640z" fill="none"/><use xlink:href="#g" transform="matrix(1,0,0,1,645,1115) translate(79.48148148148147 30.333333333333336)"/></g><g filter="url(#h)"><path d="M420 607v-47h520v47" fill="#ffeca9"/><path d="M420 1660V560h520v1100zM420 607h520" stroke="#3d4752" stroke-width="4" fill="none"/><use xlink:href="#i" transform="matrix(1,0,0,1,420,560) translate(172.77777777777777 28.833333333333336)"/><use xlink:href="#j" transform="matrix(1,0,0,1,420,560) translate(264.48148148148147 28.833333333333336)"/></g><g filter="url(#k)"><path d="M460 680h440v320c-73.33-53.33-119.17-53.33-146.67-53.33-44 0-102.66 53.33-146.66 53.33-27.5 0-73.34 0-146.67-53.33z" stroke="#3d4752" stroke-width="4" fill="#f25844"/><use xlink:href="#l" transform="matrix(1,0,0,1,465,685) translate(181 133.83333333333334)"/></g><defs><path d="M266 0h-40l-56-210L115 0H75L2-248h35L96-30l15-64 43-154h32l59 218 59-218h35" id="m"/><path d="M100-194c62-1 85 37 85 99 1 63-27 99-86 99S16-35 15-95c0-66 28-99 85-99zM99-20c44 1 53-31 53-75 0-43-8-75-51-75s-53 32-53 75 10 74 51 75" id="n"/><path d="M114-163C36-179 61-72 57 0H25l-1-190h30c1 12-1 29 2 39 6-27 23-49 58-41v29" id="o"/><path d="M143 0L79-87 56-68V0H24v-261h32v163l83-92h37l-77 82L181 0h-38" id="p"/><path d="M100-194c63 0 86 42 84 106H49c0 40 14 67 53 68 26 1 43-12 49-29l28 8c-11 28-37 45-77 45C44 4 14-33 15-96c1-61 26-98 85-98zm52 81c6-60-76-77-97-28-3 7-6 17-6 28h103" id="q"/><path d="M135-143c-3-34-86-38-87 0 15 53 115 12 119 90S17 21 10-45l28-5c4 36 97 45 98 0-10-56-113-15-118-90-4-57 82-63 122-42 12 7 21 19 24 35" id="r"/><g id="b"><use transform="matrix(0.07407407407407408,0,0,0.07407407407407408,0,0)" xlink:href="#m"/><use transform="matrix(0.07407407407407408,0,0,0.07407407407407408,24.592592592592595,0)" xlink:href="#n"/><use transform="matrix(0.07407407407407408,0,0,0.07407407407407408,39.40740740740741,0)" xlink:href="#o"/><use transform="matrix(0.07407407407407408,0,0,0.07407407407407408,48.22222222222223,0)" xlink:href="#p"/><use transform="matrix(0.07407407407407408,0,0,0.07407407407407408,61.555555555555564,0)" xlink:href="#q"/><use transform="matrix(0.07407407407407408,0,0,0.07407407407407408,76.37037037037038,0)" xlink:href="#o"/><use transform="matrix(0.07407407407407408,0,0,0.07407407407407408,85.18518518518519,0)" xlink:href="#r"/></g><filter id="a" filterUnits="objectBoundingBox" x="-.02" y="-.01" width="1.05" height="1.06"><feOffset result="offOut" in="SourceAlpha" dy="6"/><feGaussianBlur result="blurOut" in="offOut" stdDeviation="5"/><feColorMatrix result="colorOut" in="blurOut" values="0 0 0 0 0 0 0 0 0 0 0 0 0 0 0 0 0 0 0.16862745098039217 0"/><feBlend in="SourceGraphic" in2="colorOut"/></filter><path d="M185-189c-5-48-123-54-124 2 14 75 158 14 163 119 3 78-121 87-175 55-17-10-28-26-33-46l33-7c5 56 141 63 141-1 0-78-155-14-162-118-5-82 145-84 179-34 5 7 8 16 11 25" id="s"/><path d="M117-194c89-4 53 116 60 194h-32v-121c0-31-8-49-39-48C34-167 62-67 57 0H25l-1-190h30c1 10-1 24 2 32 11-22 29-35 61-36" id="t"/><path d="M85-194c31 0 48 13 60 33l-1-100h32l1 261h-30c-2-10 0-23-3-31C134-8 116 4 85 4 32 4 16-35 15-94c0-66 23-100 70-100zm9 24c-40 0-46 34-46 75 0 40 6 74 45 74 42 0 51-32 51-76 0-42-9-74-50-73" id="u"/><g id="c"><use transform="matrix(0.07407407407407408,0,0,0.07407407407407408,0,0)" xlink:href="#s"/><use transform="matrix(0.07407407407407408,0,0,0.07407407407407408,17.77777777777778,0)" xlink:href="#q"/><use transform="matrix(0.07407407407407408,0,0,0.07407407407407408,32.592592592592595,0)" xlink:href="#t"/><use transform="matrix(0.07407407407407408,0,0,0.07407407407407408,47.40740740740741,0)" xlink:href="#u"/><use transform="matrix(0.07407407407407408,0,0,0.07407407407407408,62.22222222222223,0)" xlink:href="#q"/><use transform="matrix(0.07407407407407408,0,0,0.07407407407407408,77.03703703703702,0)" xlink:href="#o"/></g><filter id="d" filterUnits="objectBoundingBox" x="-.13" y="-.02" width="1.25" height="1.08"><feOffset result="offOut" in="SourceAlpha" dy="6"/><feGaussianBlur result="blurOut" in="offOut" stdDeviation="5"/><feColorMatrix result="colorOut" in="blurOut" values="0 0 0 0 0 0 0 0 0 0 0 0 0 0 0 0 0 0 0.16862745098039217 0"/><feBlend in="SourceGraphic" in2="colorOut"/></filter><filter id="e" filterUnits="objectBoundingBox" x="-.13" y="-.01" width="1.25" height="1.07"><feOffset result="offOut" in="SourceAlpha" dy="6"/><feGaussianBlur result="blurOut" in="offOut" stdDeviation="5"/><feColorMatrix result="colorOut" in="blurOut" values="0 0 0 0 0 0 0 0 0 0 0 0 0 0 0 0 0 0 0.16862745098039217 0"/><feBlend in="SourceGraphic" in2="colorOut"/></filter><path fill="#3d4752" d="M153-248C145-148 188 4 80 4 36 3 13-21 6-62l32-5c4 25 16 42 43 43 27 0 39-20 39-49v-147H72v-28h81" id="v"/><path fill="#3d4752" d="M185-189c-5-48-123-54-124 2 14 75 158 14 163 119 3 78-121 87-175 55-17-10-28-26-33-46l33-7c5 56 141 63 141-1 0-78-155-14-162-118-5-82 145-84 179-34 5 7 8 16 11 25" id="w"/><path fill="#3d4752" d="M140-251c81 0 123 46 123 126C263-46 219 4 140 4 59 4 17-45 17-125s42-126 123-126zm0 227c63 0 89-41 89-101s-29-99-89-99c-61 0-89 39-89 99S79-25 140-24" id="x"/><path fill="#3d4752" d="M190 0L58-211 59 0H30v-248h39L202-35l-2-213h31V0h-41" id="y"/><g id="g"><use transform="matrix(0.07407407407407408,0,0,0.07407407407407408,0,0)" xlink:href="#v"/><use transform="matrix(0.07407407407407408,0,0,0.07407407407407408,13.333333333333336,0)" xlink:href="#w"/><use transform="matrix(0.07407407407407408,0,0,0.07407407407407408,31.111111111111114,0)" xlink:href="#x"/><use transform="matrix(0.07407407407407408,0,0,0.07407407407407408,51.85185185185186,0)" xlink:href="#y"/></g><filter id="f" filterUnits="objectBoundingBox" x="-.04" y="-.07" width="1.08" height="1.33"><feOffset result="offOut" in="SourceAlpha" dy="6"/><feGaussianBlur result="blurOut" in="offOut" stdDeviation="5"/><feColorMatrix result="colorOut" in="blurOut" values="0 0 0 0 0 0 0 0 0 0 0 0 0 0 0 0 0 0 0.16862745098039217 0"/><feBlend in="SourceGraphic" in2="colorOut"/></filter><path fill="#3d4752" d="M30-248c118-7 216 8 213 122C240-48 200 0 122 0H30v-248zM63-27c89 8 146-16 146-99s-60-101-146-95v194" id="z"/><path fill="#3d4752" d="M100-194c62-1 85 37 85 99 1 63-27 99-86 99S16-35 15-95c0-66 28-99 85-99zM99-20c44 1 53-31 53-75 0-43-8-75-51-75s-53 32-53 75 10 74 51 75" id="A"/><path fill="#3d4752" d="M96-169c-40 0-48 33-48 73s9 75 48 75c24 0 41-14 43-38l32 2c-6 37-31 61-74 61-59 0-76-41-82-99-10-93 101-131 147-64 4 7 5 14 7 22l-32 3c-4-21-16-35-41-35" id="B"/><path fill="#3d4752" d="M143 0L79-87 56-68V0H24v-261h32v163l83-92h37l-77 82L181 0h-38" id="C"/><path fill="#3d4752" d="M100-194c63 0 86 42 84 106H49c0 40 14 67 53 68 26 1 43-12 49-29l28 8c-11 28-37 45-77 45C44 4 14-33 15-96c1-61 26-98 85-98zm52 81c6-60-76-77-97-28-3 7-6 17-6 28h103" id="D"/><path fill="#3d4752" d="M114-163C36-179 61-72 57 0H25l-1-190h30c1 12-1 29 2 39 6-27 23-49 58-41v29" id="E"/><g id="i"><use transform="matrix(0.07407407407407408,0,0,0.07407407407407408,0,0)" xlink:href="#z"/><use transform="matrix(0.07407407407407408,0,0,0.07407407407407408,19.185185185185187,0)" xlink:href="#A"/><use transform="matrix(0.07407407407407408,0,0,0.07407407407407408,34,0)" xlink:href="#B"/><use transform="matrix(0.07407407407407408,0,0,0.07407407407407408,47.33333333333334,0)" xlink:href="#C"/><use transform="matrix(0.07407407407407408,0,0,0.07407407407407408,60.66666666666667,0)" xlink:href="#D"/><use transform="matrix(0.07407407407407408,0,0,0.07407407407407408,75.4814814814815,0)" xlink:href="#E"/></g><path fill="#3d4752" d="M206 0h-36l-40-164L89 0H53L-1-190h32L70-26l43-164h34l41 164 42-164h31" id="F"/><path fill="#3d4752" d="M141-36C126-15 110 5 73 4 37 3 15-17 15-53c-1-64 63-63 125-63 3-35-9-54-41-54-24 1-41 7-42 31l-33-3c5-37 33-52 76-52 45 0 72 20 72 64v82c-1 20 7 32 28 27v20c-31 9-61-2-59-35zM48-53c0 20 12 33 32 33 41-3 63-29 60-74-43 2-92-5-92 41" id="G"/><path fill="#3d4752" d="M210-169c-67 3-38 105-44 169h-31v-121c0-29-5-50-35-48C34-165 62-65 56 0H25l-1-190h30c1 10-1 24 2 32 10-44 99-50 107 0 11-21 27-35 58-36 85-2 47 119 55 194h-31v-121c0-29-5-49-35-48" id="H"/><g id="j"><use transform="matrix(0.07407407407407408,0,0,0.07407407407407408,0,0)" xlink:href="#w"/><use transform="matrix(0.07407407407407408,0,0,0.07407407407407408,17.77777777777778,0)" xlink:href="#F"/><use transform="matrix(0.07407407407407408,0,0,0.07407407407407408,36.96296296296296,0)" xlink:href="#G"/><use transform="matrix(0.07407407407407408,0,0,0.07407407407407408,51.77777777777778,0)" xlink:href="#E"/><use transform="matrix(0.07407407407407408,0,0,0.07407407407407408,60.592592592592595,0)" xlink:href="#H"/></g><filter id="h" filterUnits="objectBoundingBox" x="-.02" y="0" width="1.04" height="1.02"><feOffset result="offOut" in="SourceAlpha" dy="6"/><feGaussianBlur result="blurOut" in="offOut" stdDeviation="5"/><feColorMatrix result="colorOut" in="blurOut" values="0 0 0 0 0 0 0 0 0 0 0 0 0 0 0 0 0 0 0.16862745098039217 0"/><feBlend in="SourceGraphic" in2="colorOut"/></filter><path d="M233-177c-1 41-23 64-60 70L243 0h-38l-65-103H63V0H30v-248c88 3 205-21 203 71zM63-129c60-2 137 13 137-47 0-61-80-42-137-45v92" id="I"/><path d="M24-231v-30h32v30H24zM24 0v-190h32V0H24" id="J"/><g id="l"><use transform="matrix(0.07407407407407408,0,0,0.07407407407407408,0,0)" xlink:href="#I"/><use transform="matrix(0.07407407407407408,0,0,0.07407407407407408,19.185185185185187,0)" xlink:href="#q"/><use transform="matrix(0.07407407407407408,0,0,0.07407407407407408,34,0)" xlink:href="#u"/><use transform="matrix(0.07407407407407408,0,0,0.07407407407407408,48.81481481481481,0)" xlink:href="#J"/><use transform="matrix(0.07407407407407408,0,0,0.07407407407407408,54.66666666666667,0)" xlink:href="#r"/></g><filter id="k" filterUnits="objectBoundingBox" x="-.02" y="-.01" width="1.05" height="1.06"><feOffset result="offOut" in="SourceAlpha" dy="6"/><feGaussianBlur result="blurOut" in="offOut" stdDeviation="5"/><feColorMatrix result="colorOut" in="blurOut" values="0 0 0 0 0 0 0 0 0 0 0 0 0 0 0 0 0 0 0.16862745098039217 0"/><feBlend in="SourceGraphic" in2="colorOut"/></filter></defs></g></svg>